PathFileType	4	(X/Y/Z)	OpenSim_Sub06_EMGStiffKnee_Accel.trc
DataRate	CameraRate	NumFrames	NumMarkers	Units	OrigDataRate	OrigDataStartFrame	OrigNumFrames
100	100	13	8	m	100	2038	5432
Frame#	Time	torso_imu_offset_imu	pelvis_imu_offset_imu	tibia_r_imu_offset_imu	femur_r_imu_offset_imu	tibia_l_imu_offset_imu	femur_l_imu_offset_imu	toes_r_imu_offset_imu	toes_l_imu_offset_imu
				X1	Y1	Z1	X2	Y2	Z2	X3	Y3	Z3	X4	Y4	Z4	X5	Y5	Z5	X6	Y6	Z6	X7	Y7	Z7	X8		Y8	Z8	

2038	20.37000000	9.14808700	-1.32572100	6.61697900	8.32501500	2.41390800	4.44215800	10.17341900	1.99221500	1.20574500	9.53488700	-0.73345900	-0.92501800	7.42713400	-0.30792400	3.42630900	8.52911300	3.65358500	0.01333200	5.65750000	-2.00992400	8.18947700	13.44930400	-3.69538200	2.40618700
2039	20.38000000	8.95915300	-1.40873900	6.62246000	8.24786600	2.39960700	4.15345300	10.02736700	1.82622000	1.27527300	9.51279600	-0.82108700	-0.78273400	8.01450400	-0.33238400	2.25267200	8.81610700	3.27016300	0.19603700	5.85848500	-1.88688600	8.08599500	13.08882300	-5.21416800	1.10961100
2040	20.39000000	8.95783300	-1.40316900	6.54464300	7.98696800	2.39621800	4.02470500	9.96188600	1.36998100	1.31431500	9.46200100	-1.12696300	-0.65286100	8.71197400	-0.26460000	1.46411300	8.96934200	2.84284600	0.32426900	5.84433000	-1.77891900	8.08190300	12.22416800	-3.58189500	0.83671000
2041	20.40000000	9.05364600	-1.28877100	6.33233900	7.95002600	2.66065000	3.85405500	9.88882000	0.93305800	1.34607800	9.47787400	-1.35921400	-0.62525300	8.88067800	-0.33280800	1.36906400	8.75449400	2.72173500	0.47250700	5.84086500	-1.84849800	8.11567000	11.55020100	-2.47835300	0.38136300
2042	20.41000000	8.80552000	-1.24226300	6.23100200	7.76581800	2.68404700	3.76124400	9.80908400	0.50776300	1.54007700	9.40862200	-1.68466400	-0.64784300	8.50594100	-0.46785900	1.91651200	8.15571100	3.16385000	0.55555800	5.83119400	-1.99251000	8.08187000	11.99233400	-2.92711800	0.43149900
2043	20.42000000	8.53465300	-1.28035800	6.11215500	7.59603800	2.81574900	3.64556500	9.67901100	0.02037600	1.67749800	9.30563600	-1.80311500	-0.58769200	8.16507800	-0.45720000	2.65919900	7.39786800	3.70267600	0.73247700	5.76327300	-2.18620200	8.06531300	13.11885500	-1.06744200	-0.24174600
2044	20.43000000	8.57444900	-1.25417400	6.00914000	7.58185300	3.06725300	3.78276700	9.52217600	-0.47405800	1.86703500	9.08693500	-1.97314600	-0.59840800	8.86914000	0.34015500	3.65035200	6.94146000	4.07285600	0.79566000	6.25534600	-1.85868300	7.88064700	10.17097200	0.11524700	-2.45481800
2045	20.44000000	9.02180500	-1.21177700	5.95582700	7.46745400	3.04995700	4.01891600	9.44461900	-1.09179600	1.87680200	8.94839200	-2.16177900	-0.60457200	9.94875100	0.93405400	6.42269700	6.61960900	4.55373900	0.56419100	6.17583300	-2.21539200	7.87297900	12.75026100	-14.78941500	-1.59940400
2046	20.45000000	9.15981100	-1.26827400	5.81604600	7.41587900	3.05336700	4.80566800	9.45112400	-1.74898400	2.43596600	8.85082200	-2.34258800	-0.64336000	12.71363400	0.08169000	7.36675700	7.05832600	4.80278800	0.74940700	6.34076200	-2.20940500	8.06894800	15.31741800	-8.29121400	26.49448400
2047	20.46000000	10.04125900	-1.12851100	5.97797300	7.29837300	2.61156900	6.72664300	9.79170300	-2.42070500	2.44700800	8.74152800	-2.89820500	-0.70965900	17.04405800	-0.43260600	8.56253400	9.91121100	4.93762700	1.68492100	5.98861300	-2.59724500	8.74180800	46.43090100	-5.58044200	39.44998800
2048	20.47000000	12.65311700	-0.73726600	6.23452900	7.39759700	1.15454100	8.85636000	10.87100200	-3.20116800	2.24298100	9.37887000	-3.61722400	-0.71572800	22.29583000	1.66712700	9.82221700	17.94306600	5.78194400	0.49821400	5.81073500	-3.60632500	9.39220400	-1.08667200	-10.62339300	-18.19923200
2049	20.48000000	14.41406600	-0.67148200	6.96814100	9.31529000	-0.93320600	9.00034300	12.59473000	-3.87806500	3.16767300	10.63853800	-4.57293800	-0.85035400	20.88342300	1.67612300	7.91474900	25.83916200	7.98234600	-3.03346500	5.58102500	-4.60900300	9.15114300	-0.84574800	13.44283000	35.51929500
2050	20.49000000	12.82823600	-0.58504800	7.74198600	13.37062700	-2.66012000	8.22162600	13.99637700	-4.65745000	4.34336800	10.89483600	-5.02946600	-1.12374800	12.96691700	0.94865900	3.80067700	21.95280900	6.07210400	-3.98564200	5.65752400	-4.65014300	9.61446100	8.29161200	8.80031100	13.86668900
